<?xml version="1.0" encoding="utf-8" standalone="no"?>
<!DOCTYPE svg PUBLIC "-//W3C//DTD SVG 1.1//EN"
  "http://www.w3.org/Graphics/SVG/1.1/DTD/svg11.dtd">
<svg xmlns:xlink="http://www.w3.org/1999/xlink" width="1432.8pt" height="424.637812pt" viewBox="0 0 1432.8 424.637812" xmlns="http://www.w3.org/2000/svg" version="1.1">
 <metadata>
  <rdf:RDF xmlns:dc="http://purl.org/dc/elements/1.1/" xmlns:cc="http://creativecommons.org/ns#" xmlns:rdf="http://www.w3.org/1999/02/22-rdf-syntax-ns#">
   <cc:Work>
    <dc:type rdf:resource="http://purl.org/dc/dcmitype/StillImage"/>
    <dc:date>2025-11-22T10:26:39.033495</dc:date>
    <dc:format>image/svg+xml</dc:format>
    <dc:creator>
     <cc:Agent>
      <dc:title>Matplotlib v3.10.7, https://matplotlib.org/</dc:title>
     </cc:Agent>
    </dc:creator>
   </cc:Work>
  </rdf:RDF>
 </metadata>
 <defs>
  <style type="text/css">*{stroke-linejoin: round; stroke-linecap: butt}</style>
 </defs>
 <g id="figure_1">
  <g id="patch_1">
   <path d="M 0 424.637812 
L 1432.8 424.637812 
L 1432.8 0 
L 0 0 
z
" style="fill: #ffffff"/>
  </g>
  <g id="axes_1">
   <g id="patch_2">
    <path d="M 42.66 235.229812 
L 127.764 235.229812 
Q 134.856 235.229812 134.856 227.637812 
L 134.856 151.717812 
Q 134.856 144.125812 127.764 144.125812 
L 42.66 144.125812 
Q 35.568 144.125812 35.568 151.717812 
L 35.568 227.637812 
Q 35.568 235.229812 42.66 235.229812 
z
" clip-path="url(#p467f247e63)" style="fill: #e6f3ff; stroke: #000000; stroke-width: 2; stroke-linejoin: miter"/>
   </g>
   <g id="patch_3">
    <path d="M 163.224 235.229812 
L 248.328 235.229812 
Q 255.42 235.229812 255.42 227.637812 
L 255.42 151.717812 
Q 255.42 144.125812 248.328 144.125812 
L 163.224 144.125812 
Q 156.132 144.125812 156.132 151.717812 
L 156.132 227.637812 
Q 156.132 235.229812 163.224 235.229812 
z
" clip-path="url(#p467f247e63)" style="fill: #fff2e6; stroke: #000000; stroke-width: 2; stroke-linejoin: miter"/>
   </g>
   <g id="patch_4">
    <path d="M 283.788 235.229812 
L 368.892 235.229812 
Q 375.984 235.229812 375.984 227.637812 
L 375.984 151.717812 
Q 375.984 144.125812 368.892 144.125812 
L 283.788 144.125812 
Q 276.696 144.125812 276.696 151.717812 
L 276.696 227.637812 
Q 276.696 235.229812 283.788 235.229812 
z
" clip-path="url(#p467f247e63)" style="fill: #e6ffe6; stroke: #000000; stroke-width: 2; stroke-linejoin: miter"/>
   </g>
   <g id="patch_5">
    <path d="M 404.352 235.229812 
L 489.456 235.229812 
Q 496.548 235.229812 496.548 227.637812 
L 496.548 151.717812 
Q 496.548 144.125812 489.456 144.125812 
L 404.352 144.125812 
Q 397.26 144.125812 397.26 151.717812 
L 397.26 227.637812 
Q 397.26 235.229812 404.352 235.229812 
z
" clip-path="url(#p467f247e63)" style="fill: #ffe6e6; stroke: #000000; stroke-width: 2; stroke-linejoin: miter"/>
   </g>
   <g id="patch_6">
    <path d="M 524.916 235.229812 
L 610.02 235.229812 
Q 617.112 235.229812 617.112 227.637812 
L 617.112 151.717812 
Q 617.112 144.125812 610.02 144.125812 
L 524.916 144.125812 
Q 517.824 144.125812 517.824 151.717812 
L 517.824 227.637812 
Q 517.824 235.229812 524.916 235.229812 
z
" clip-path="url(#p467f247e63)" style="fill: #fff2e6; stroke: #000000; stroke-width: 2; stroke-linejoin: miter"/>
   </g>
   <g id="patch_7">
    <path d="M 645.48 235.229812 
L 730.584 235.229812 
Q 737.676 235.229812 737.676 227.637812 
L 737.676 151.717812 
Q 737.676 144.125812 730.584 144.125812 
L 645.48 144.125812 
Q 638.388 144.125812 638.388 151.717812 
L 638.388 227.637812 
Q 638.388 235.229812 645.48 235.229812 
z
" clip-path="url(#p467f247e63)" style="fill: #e6ffe6; stroke: #000000; stroke-width: 2; stroke-linejoin: miter"/>
   </g>
   <g id="patch_8">
    <path d="M 766.044 235.229812 
L 851.148 235.229812 
Q 858.24 235.229812 858.24 227.637812 
L 858.24 151.717812 
Q 858.24 144.125812 851.148 144.125812 
L 766.044 144.125812 
Q 758.952 144.125812 758.952 151.717812 
L 758.952 227.637812 
Q 758.952 235.229812 766.044 235.229812 
z
" clip-path="url(#p467f247e63)" style="fill: #ffffe6; stroke: #000000; stroke-width: 2; stroke-linejoin: miter"/>
   </g>
   <g id="patch_9">
    <path d="M 886.608 235.229812 
L 971.712 235.229812 
Q 978.804 235.229812 978.804 227.637812 
L 978.804 151.717812 
Q 978.804 144.125812 971.712 144.125812 
L 886.608 144.125812 
Q 879.516 144.125812 879.516 151.717812 
L 879.516 227.637812 
Q 879.516 235.229812 886.608 235.229812 
z
" clip-path="url(#p467f247e63)" style="fill: #fff2e6; stroke: #000000; stroke-width: 2; stroke-linejoin: miter"/>
   </g>
   <g id="patch_10">
    <path d="M 163.224 121.349812 
L 248.328 121.349812 
Q 255.42 121.349812 255.42 113.757812 
L 255.42 53.021812 
Q 255.42 45.429812 248.328 45.429812 
L 163.224 45.429812 
Q 156.132 45.429812 156.132 53.021812 
L 156.132 113.757812 
Q 156.132 121.349812 163.224 121.349812 
z
" clip-path="url(#p467f247e63)" style="fill: #f0f0f0; stroke: #000000; stroke-width: 2; stroke-linejoin: miter"/>
   </g>
   <g id="patch_11">
    <path d="M 524.916 121.349812 
L 610.02 121.349812 
Q 617.112 121.349812 617.112 113.757812 
L 617.112 53.021812 
Q 617.112 45.429812 610.02 45.429812 
L 524.916 45.429812 
Q 517.824 45.429812 517.824 53.021812 
L 517.824 113.757812 
Q 517.824 121.349812 524.916 121.349812 
z
" clip-path="url(#p467f247e63)" style="fill: #f0f0f0; stroke: #000000; stroke-width: 2; stroke-linejoin: miter"/>
   </g>
   <g id="patch_12">
    <path d="M 163.224 189.677812 
L 156.132 193.473812 
L 156.132 189.715772 
L 127.764 189.715772 
L 127.764 189.639852 
L 156.132 189.639852 
L 156.132 185.881812 
z
" clip-path="url(#p467f247e63)" style="stroke: #000000; stroke-linejoin: miter"/>
   </g>
   <g id="patch_13">
    <path d="M 283.788 189.677812 
L 276.696 193.473812 
L 276.696 189.715772 
L 255.42 189.715772 
L 255.42 189.639852 
L 276.696 189.639852 
L 276.696 185.881812 
z
" clip-path="url(#p467f247e63)" style="stroke: #000000; stroke-linejoin: miter"/>
   </g>
   <g id="patch_14">
    <path d="M 404.352 189.677812 
L 397.26 193.473812 
L 397.26 189.715772 
L 375.984 189.715772 
L 375.984 189.639852 
L 397.26 189.639852 
L 397.26 185.881812 
z
" clip-path="url(#p467f247e63)" style="stroke: #000000; stroke-linejoin: miter"/>
   </g>
   <g id="patch_15">
    <path d="M 524.916 189.677812 
L 517.824 193.473812 
L 517.824 189.715772 
L 496.548 189.715772 
L 496.548 189.639852 
L 517.824 189.639852 
L 517.824 185.881812 
z
" clip-path="url(#p467f247e63)" style="stroke: #000000; stroke-linejoin: miter"/>
   </g>
   <g id="patch_16">
    <path d="M 645.48 189.677812 
L 638.388 193.473812 
L 638.388 189.715772 
L 617.112 189.715772 
L 617.112 189.639852 
L 638.388 189.639852 
L 638.388 185.881812 
z
" clip-path="url(#p467f247e63)" style="stroke: #000000; stroke-linejoin: miter"/>
   </g>
   <g id="patch_17">
    <path d="M 766.044 189.677812 
L 758.952 193.473812 
L 758.952 189.715772 
L 737.676 189.715772 
L 737.676 189.639852 
L 758.952 189.639852 
L 758.952 185.881812 
z
" clip-path="url(#p467f247e63)" style="stroke: #000000; stroke-linejoin: miter"/>
   </g>
   <g id="patch_18">
    <path d="M 886.608 189.677812 
L 879.516 193.473812 
L 879.516 189.715772 
L 851.148 189.715772 
L 851.148 189.639852 
L 879.516 189.639852 
L 879.516 185.881812 
z
" clip-path="url(#p467f247e63)" style="stroke: #000000; stroke-linejoin: miter"/>
   </g>
   <g id="patch_19">
    <path d="M 1000.08 189.677812 
L 992.988 193.473812 
L 992.988 189.715772 
L 971.712 189.715772 
L 971.712 189.639852 
L 992.988 189.639852 
L 992.988 185.881812 
z
" clip-path="url(#p467f247e63)" style="stroke: #000000; stroke-linejoin: miter"/>
   </g>
   <g id="patch_20">
    <path d="M 255.42 151.717812 
L 251.874 144.125812 
L 255.38454 144.125812 
L 255.38454 83.389812 
L 255.45546 83.389812 
L 255.45546 144.125812 
L 258.966 144.125812 
z
" clip-path="url(#p467f247e63)" style="stroke: #000000; stroke-linejoin: miter"/>
   </g>
   <g id="patch_21">
    <path d="M 404.352 151.717812 
L 397.26 155.513812 
L 397.26 151.755772 
L 255.42 151.755772 
L 255.42 151.679852 
L 397.26 151.679852 
L 397.26 147.921812 
z
" clip-path="url(#p467f247e63)" style="stroke: #000000; stroke-linejoin: miter"/>
   </g>
   <g id="patch_22">
    <path d="M 617.112 151.717812 
L 613.566 144.125812 
L 617.07654 144.125812 
L 617.07654 83.389812 
L 617.14746 83.389812 
L 617.14746 144.125812 
L 620.658 144.125812 
z
" clip-path="url(#p467f247e63)" style="stroke: #000000; stroke-linejoin: miter"/>
   </g>
   <g id="patch_23">
    <path d="M 524.916 151.717812 
L 532.008 147.921812 
L 532.008 151.679852 
L 617.112 151.679852 
L 617.112 151.755772 
L 532.008 151.755772 
L 532.008 155.513812 
z
" clip-path="url(#p467f247e63)" style="stroke: #000000; stroke-linejoin: miter"/>
   </g>
   <g id="text_1">
    <!-- Antenna -->
    <g transform="translate(61.508875 192.437187) scale(0.1 -0.1)">
     <defs>
      <path id="DejaVuSans-Bold-41" d="M 3419 850 
L 1538 850 
L 1241 0 
L 31 0 
L 1759 4666 
L 3194 4666 
L 4922 0 
L 3713 0 
L 3419 850 
z
M 1838 1716 
L 3116 1716 
L 2478 3572 
L 1838 1716 
z
" transform="scale(0.015625)"/>
      <path id="DejaVuSans-Bold-6e" d="M 4056 2131 
L 4056 0 
L 2931 0 
L 2931 347 
L 2931 1631 
Q 2931 2084 2911 2256 
Q 2891 2428 2841 2509 
Q 2775 2619 2662 2680 
Q 2550 2741 2406 2741 
Q 2056 2741 1856 2470 
Q 1656 2200 1656 1722 
L 1656 0 
L 538 0 
L 538 3500 
L 1656 3500 
L 1656 2988 
Q 1909 3294 2193 3439 
Q 2478 3584 2822 3584 
Q 3428 3584 3742 3212 
Q 4056 2841 4056 2131 
z
" transform="scale(0.015625)"/>
      <path id="DejaVuSans-Bold-74" d="M 1759 4494 
L 1759 3500 
L 2913 3500 
L 2913 2700 
L 1759 2700 
L 1759 1216 
Q 1759 972 1856 886 
Q 1953 800 2241 800 
L 2816 800 
L 2816 0 
L 1856 0 
Q 1194 0 917 276 
Q 641 553 641 1216 
L 641 2700 
L 84 2700 
L 84 3500 
L 641 3500 
L 641 4494 
L 1759 4494 
z
" transform="scale(0.015625)"/>
      <path id="DejaVuSans-Bold-65" d="M 4031 1759 
L 4031 1441 
L 1416 1441 
Q 1456 1047 1700 850 
Q 1944 653 2381 653 
Q 2734 653 3104 758 
Q 3475 863 3866 1075 
L 3866 213 
Q 3469 63 3072 -14 
Q 2675 -91 2278 -91 
Q 1328 -91 801 392 
Q 275 875 275 1747 
Q 275 2603 792 3093 
Q 1309 3584 2216 3584 
Q 3041 3584 3536 3087 
Q 4031 2591 4031 1759 
z
M 2881 2131 
Q 2881 2450 2695 2645 
Q 2509 2841 2209 2841 
Q 1884 2841 1681 2658 
Q 1478 2475 1428 2131 
L 2881 2131 
z
" transform="scale(0.015625)"/>
      <path id="DejaVuSans-Bold-61" d="M 2106 1575 
Q 1756 1575 1579 1456 
Q 1403 1338 1403 1106 
Q 1403 894 1545 773 
Q 1688 653 1941 653 
Q 2256 653 2472 879 
Q 2688 1106 2688 1447 
L 2688 1575 
L 2106 1575 
z
M 3816 1997 
L 3816 0 
L 2688 0 
L 2688 519 
Q 2463 200 2181 54 
Q 1900 -91 1497 -91 
Q 953 -91 614 226 
Q 275 544 275 1050 
Q 275 1666 698 1953 
Q 1122 2241 2028 2241 
L 2688 2241 
L 2688 2328 
Q 2688 2594 2478 2717 
Q 2269 2841 1825 2841 
Q 1466 2841 1156 2769 
Q 847 2697 581 2553 
L 581 3406 
Q 941 3494 1303 3539 
Q 1666 3584 2028 3584 
Q 2975 3584 3395 3211 
Q 3816 2838 3816 1997 
z
" transform="scale(0.015625)"/>
     </defs>
     <use xlink:href="#DejaVuSans-Bold-41"/>
     <use xlink:href="#DejaVuSans-Bold-6e" transform="translate(77.392578 0)"/>
     <use xlink:href="#DejaVuSans-Bold-74" transform="translate(148.583984 0)"/>
     <use xlink:href="#DejaVuSans-Bold-65" transform="translate(196.386719 0)"/>
     <use xlink:href="#DejaVuSans-Bold-6e" transform="translate(264.208984 0)"/>
     <use xlink:href="#DejaVuSans-Bold-6e" transform="translate(335.400391 0)"/>
     <use xlink:href="#DejaVuSans-Bold-61" transform="translate(406.591797 0)"/>
    </g>
   </g>
   <g id="text_2">
    <!-- RF -->
    <g transform="translate(198.510375 186.838281) scale(0.1 -0.1)">
     <defs>
      <path id="DejaVuSans-Bold-52" d="M 2297 2597 
Q 2675 2597 2839 2737 
Q 3003 2878 3003 3200 
Q 3003 3519 2839 3656 
Q 2675 3794 2297 3794 
L 1791 3794 
L 1791 2597 
L 2297 2597 
z
M 1791 1766 
L 1791 0 
L 588 0 
L 588 4666 
L 2425 4666 
Q 3347 4666 3776 4356 
Q 4206 4047 4206 3378 
Q 4206 2916 3982 2619 
Q 3759 2322 3309 2181 
Q 3556 2125 3751 1926 
Q 3947 1728 4147 1325 
L 4800 0 
L 3519 0 
L 2950 1159 
Q 2778 1509 2601 1637 
Q 2425 1766 2131 1766 
L 1791 1766 
z
" transform="scale(0.015625)"/>
      <path id="DejaVuSans-Bold-46" d="M 588 4666 
L 3834 4666 
L 3834 3756 
L 1791 3756 
L 1791 2888 
L 3713 2888 
L 3713 1978 
L 1791 1978 
L 1791 0 
L 588 0 
L 588 4666 
z
" transform="scale(0.015625)"/>
     </defs>
     <use xlink:href="#DejaVuSans-Bold-52"/>
     <use xlink:href="#DejaVuSans-Bold-46" transform="translate(77.001953 0)"/>
    </g>
    <!-- Filter -->
    <g transform="translate(190.685375 198.036094) scale(0.1 -0.1)">
     <defs>
      <path id="DejaVuSans-Bold-69" d="M 538 3500 
L 1656 3500 
L 1656 0 
L 538 0 
L 538 3500 
z
M 538 4863 
L 1656 4863 
L 1656 3950 
L 538 3950 
L 538 4863 
z
" transform="scale(0.015625)"/>
      <path id="DejaVuSans-Bold-6c" d="M 538 4863 
L 1656 4863 
L 1656 0 
L 538 0 
L 538 4863 
z
" transform="scale(0.015625)"/>
      <path id="DejaVuSans-Bold-72" d="M 3138 2547 
Q 2991 2616 2845 2648 
Q 2700 2681 2553 2681 
Q 2122 2681 1889 2404 
Q 1656 2128 1656 1613 
L 1656 0 
L 538 0 
L 538 3500 
L 1656 3500 
L 1656 2925 
Q 1872 3269 2151 3426 
Q 2431 3584 2822 3584 
Q 2878 3584 2943 3579 
Q 3009 3575 3134 3559 
L 3138 2547 
z
" transform="scale(0.015625)"/>
     </defs>
     <use xlink:href="#DejaVuSans-Bold-46"/>
     <use xlink:href="#DejaVuSans-Bold-69" transform="translate(68.310547 0)"/>
     <use xlink:href="#DejaVuSans-Bold-6c" transform="translate(102.587891 0)"/>
     <use xlink:href="#DejaVuSans-Bold-74" transform="translate(136.865234 0)"/>
     <use xlink:href="#DejaVuSans-Bold-65" transform="translate(184.667969 0)"/>
     <use xlink:href="#DejaVuSans-Bold-72" transform="translate(252.490234 0)"/>
    </g>
   </g>
   <g id="text_3">
    <!-- RF -->
    <g transform="translate(319.074375 186.838281) scale(0.1 -0.1)">
     <use xlink:href="#DejaVuSans-Bold-52"/>
     <use xlink:href="#DejaVuSans-Bold-46" transform="translate(77.001953 0)"/>
    </g>
    <!-- Amp -->
    <g transform="translate(313.681406 198.036094) scale(0.1 -0.1)">
     <defs>
      <path id="DejaVuSans-Bold-6d" d="M 3781 2919 
Q 3994 3244 4286 3414 
Q 4578 3584 4928 3584 
Q 5531 3584 5847 3212 
Q 6163 2841 6163 2131 
L 6163 0 
L 5038 0 
L 5038 1825 
Q 5041 1866 5042 1909 
Q 5044 1953 5044 2034 
Q 5044 2406 4934 2573 
Q 4825 2741 4581 2741 
Q 4263 2741 4089 2478 
Q 3916 2216 3909 1719 
L 3909 0 
L 2784 0 
L 2784 1825 
Q 2784 2406 2684 2573 
Q 2584 2741 2328 2741 
Q 2006 2741 1831 2477 
Q 1656 2213 1656 1722 
L 1656 0 
L 531 0 
L 531 3500 
L 1656 3500 
L 1656 2988 
Q 1863 3284 2130 3434 
Q 2397 3584 2719 3584 
Q 3081 3584 3359 3409 
Q 3638 3234 3781 2919 
z
" transform="scale(0.015625)"/>
      <path id="DejaVuSans-Bold-70" d="M 1656 506 
L 1656 -1331 
L 538 -1331 
L 538 3500 
L 1656 3500 
L 1656 2988 
Q 1888 3294 2169 3439 
Q 2450 3584 2816 3584 
Q 3463 3584 3878 3070 
Q 4294 2556 4294 1747 
Q 4294 938 3878 423 
Q 3463 -91 2816 -91 
Q 2450 -91 2169 54 
Q 1888 200 1656 506 
z
M 2400 2772 
Q 2041 2772 1848 2508 
Q 1656 2244 1656 1747 
Q 1656 1250 1848 986 
Q 2041 722 2400 722 
Q 2759 722 2948 984 
Q 3138 1247 3138 1747 
Q 3138 2247 2948 2509 
Q 2759 2772 2400 2772 
z
" transform="scale(0.015625)"/>
     </defs>
     <use xlink:href="#DejaVuSans-Bold-41"/>
     <use xlink:href="#DejaVuSans-Bold-6d" transform="translate(77.392578 0)"/>
     <use xlink:href="#DejaVuSans-Bold-70" transform="translate(181.591797 0)"/>
    </g>
   </g>
   <g id="text_4">
    <!-- Mixer -->
    <g transform="translate(431.132125 192.437187) scale(0.1 -0.1)">
     <defs>
      <path id="DejaVuSans-Bold-4d" d="M 588 4666 
L 2119 4666 
L 3181 2169 
L 4250 4666 
L 5778 4666 
L 5778 0 
L 4641 0 
L 4641 3413 
L 3566 897 
L 2803 897 
L 1728 3413 
L 1728 0 
L 588 0 
L 588 4666 
z
" transform="scale(0.015625)"/>
      <path id="DejaVuSans-Bold-78" d="M 1422 1791 
L 159 3500 
L 1344 3500 
L 2059 2463 
L 2784 3500 
L 3969 3500 
L 2706 1797 
L 4031 0 
L 2847 0 
L 2059 1106 
L 1281 0 
L 97 0 
L 1422 1791 
z
" transform="scale(0.015625)"/>
     </defs>
     <use xlink:href="#DejaVuSans-Bold-4d"/>
     <use xlink:href="#DejaVuSans-Bold-69" transform="translate(99.511719 0)"/>
     <use xlink:href="#DejaVuSans-Bold-78" transform="translate(133.789062 0)"/>
     <use xlink:href="#DejaVuSans-Bold-65" transform="translate(198.291016 0)"/>
     <use xlink:href="#DejaVuSans-Bold-72" transform="translate(266.113281 0)"/>
    </g>
   </g>
   <g id="text_5">
    <!-- IF -->
    <g transform="translate(562.192219 186.838281) scale(0.1 -0.1)">
     <defs>
      <path id="DejaVuSans-Bold-49" d="M 588 4666 
L 1791 4666 
L 1791 0 
L 588 0 
L 588 4666 
z
" transform="scale(0.015625)"/>
     </defs>
     <use xlink:href="#DejaVuSans-Bold-49"/>
     <use xlink:href="#DejaVuSans-Bold-46" transform="translate(37.207031 0)"/>
    </g>
    <!-- Filter -->
    <g transform="translate(552.377375 198.036094) scale(0.1 -0.1)">
     <use xlink:href="#DejaVuSans-Bold-46"/>
     <use xlink:href="#DejaVuSans-Bold-69" transform="translate(68.310547 0)"/>
     <use xlink:href="#DejaVuSans-Bold-6c" transform="translate(102.587891 0)"/>
     <use xlink:href="#DejaVuSans-Bold-74" transform="translate(136.865234 0)"/>
     <use xlink:href="#DejaVuSans-Bold-65" transform="translate(184.667969 0)"/>
     <use xlink:href="#DejaVuSans-Bold-72" transform="translate(252.490234 0)"/>
    </g>
   </g>
   <g id="text_6">
    <!-- IF -->
    <g transform="translate(682.756219 186.838281) scale(0.1 -0.1)">
     <use xlink:href="#DejaVuSans-Bold-49"/>
     <use xlink:href="#DejaVuSans-Bold-46" transform="translate(37.207031 0)"/>
    </g>
    <!-- Amp -->
    <g transform="translate(675.373406 198.036094) scale(0.1 -0.1)">
     <use xlink:href="#DejaVuSans-Bold-41"/>
     <use xlink:href="#DejaVuSans-Bold-6d" transform="translate(77.392578 0)"/>
     <use xlink:href="#DejaVuSans-Bold-70" transform="translate(181.591797 0)"/>
    </g>
   </g>
   <g id="text_7">
    <!-- BFO -->
    <g transform="translate(797.118656 186.838281) scale(0.1 -0.1)">
     <defs>
      <path id="DejaVuSans-Bold-42" d="M 2456 2859 
Q 2741 2859 2887 2984 
Q 3034 3109 3034 3353 
Q 3034 3594 2887 3720 
Q 2741 3847 2456 3847 
L 1791 3847 
L 1791 2859 
L 2456 2859 
z
M 2497 819 
Q 2859 819 3042 972 
Q 3225 1125 3225 1434 
Q 3225 1738 3044 1889 
Q 2863 2041 2497 2041 
L 1791 2041 
L 1791 819 
L 2497 819 
z
M 3616 2497 
Q 4003 2384 4215 2081 
Q 4428 1778 4428 1338 
Q 4428 663 3972 331 
Q 3516 0 2584 0 
L 588 0 
L 588 4666 
L 2394 4666 
Q 3366 4666 3802 4372 
Q 4238 4078 4238 3431 
Q 4238 3091 4078 2852 
Q 3919 2613 3616 2497 
z
" transform="scale(0.015625)"/>
      <path id="DejaVuSans-Bold-4f" d="M 2719 3878 
Q 2169 3878 1866 3472 
Q 1563 3066 1563 2328 
Q 1563 1594 1866 1187 
Q 2169 781 2719 781 
Q 3272 781 3575 1187 
Q 3878 1594 3878 2328 
Q 3878 3066 3575 3472 
Q 3272 3878 2719 3878 
z
M 2719 4750 
Q 3844 4750 4481 4106 
Q 5119 3463 5119 2328 
Q 5119 1197 4481 553 
Q 3844 -91 2719 -91 
Q 1597 -91 958 553 
Q 319 1197 319 2328 
Q 319 3463 958 4106 
Q 1597 4750 2719 4750 
z
" transform="scale(0.015625)"/>
     </defs>
     <use xlink:href="#DejaVuSans-Bold-42"/>
     <use xlink:href="#DejaVuSans-Bold-46" transform="translate(76.220703 0)"/>
     <use xlink:href="#DejaVuSans-Bold-4f" transform="translate(144.53125 0)"/>
    </g>
    <!-- Mixer -->
    <g transform="translate(792.824125 198.036094) scale(0.1 -0.1)">
     <use xlink:href="#DejaVuSans-Bold-4d"/>
     <use xlink:href="#DejaVuSans-Bold-69" transform="translate(99.511719 0)"/>
     <use xlink:href="#DejaVuSans-Bold-78" transform="translate(133.789062 0)"/>
     <use xlink:href="#DejaVuSans-Bold-65" transform="translate(198.291016 0)"/>
     <use xlink:href="#DejaVuSans-Bold-72" transform="translate(266.113281 0)"/>
    </g>
   </g>
   <g id="text_8">
    <!-- AF -->
    <g transform="translate(921.874844 186.838281) scale(0.1 -0.1)">
     <use xlink:href="#DejaVuSans-Bold-41"/>
     <use xlink:href="#DejaVuSans-Bold-46" transform="translate(77.392578 0)"/>
    </g>
    <!-- Filter -->
    <g transform="translate(914.069375 198.036094) scale(0.1 -0.1)">
     <use xlink:href="#DejaVuSans-Bold-46"/>
     <use xlink:href="#DejaVuSans-Bold-69" transform="translate(68.310547 0)"/>
     <use xlink:href="#DejaVuSans-Bold-6c" transform="translate(102.587891 0)"/>
     <use xlink:href="#DejaVuSans-Bold-74" transform="translate(136.865234 0)"/>
     <use xlink:href="#DejaVuSans-Bold-65" transform="translate(184.667969 0)"/>
     <use xlink:href="#DejaVuSans-Bold-72" transform="translate(252.490234 0)"/>
    </g>
   </g>
   <g id="text_9">
    <!-- LO -->
    <g transform="translate(198.520531 86.149187) scale(0.1 -0.1)">
     <defs>
      <path id="DejaVuSans-Bold-4c" d="M 588 4666 
L 1791 4666 
L 1791 909 
L 3903 909 
L 3903 0 
L 588 0 
L 588 4666 
z
" transform="scale(0.015625)"/>
     </defs>
     <use xlink:href="#DejaVuSans-Bold-4c"/>
     <use xlink:href="#DejaVuSans-Bold-4f" transform="translate(60.095703 0)"/>
    </g>
   </g>
   <g id="text_10">
    <!-- BFO -->
    <g transform="translate(555.990656 80.550281) scale(0.1 -0.1)">
     <use xlink:href="#DejaVuSans-Bold-42"/>
     <use xlink:href="#DejaVuSans-Bold-46" transform="translate(76.220703 0)"/>
     <use xlink:href="#DejaVuSans-Bold-4f" transform="translate(144.53125 0)"/>
    </g>
    <!-- ±800Hz -->
    <g transform="translate(545.746906 91.748094) scale(0.1 -0.1)">
     <defs>
      <path id="DejaVuSans-Bold-b1" d="M 3053 4013 
L 3053 2906 
L 4684 2906 
L 4684 2169 
L 3053 2169 
L 3053 1063 
L 2309 1063 
L 2309 2169 
L 678 2169 
L 678 2906 
L 2309 2906 
L 2309 4013 
L 3053 4013 
z
M 678 744 
L 4684 744 
L 4684 0 
L 678 0 
L 678 744 
z
" transform="scale(0.015625)"/>
      <path id="DejaVuSans-Bold-38" d="M 2228 2088 
Q 1891 2088 1709 1903 
Q 1528 1719 1528 1375 
Q 1528 1031 1709 848 
Q 1891 666 2228 666 
Q 2563 666 2741 848 
Q 2919 1031 2919 1375 
Q 2919 1722 2741 1905 
Q 2563 2088 2228 2088 
z
M 1350 2484 
Q 925 2613 709 2878 
Q 494 3144 494 3541 
Q 494 4131 934 4440 
Q 1375 4750 2228 4750 
Q 3075 4750 3515 4442 
Q 3956 4134 3956 3541 
Q 3956 3144 3739 2878 
Q 3522 2613 3097 2484 
Q 3572 2353 3814 2058 
Q 4056 1763 4056 1313 
Q 4056 619 3595 264 
Q 3134 -91 2228 -91 
Q 1319 -91 855 264 
Q 391 619 391 1313 
Q 391 1763 633 2058 
Q 875 2353 1350 2484 
z
M 1631 3419 
Q 1631 3141 1786 2991 
Q 1941 2841 2228 2841 
Q 2509 2841 2662 2991 
Q 2816 3141 2816 3419 
Q 2816 3697 2662 3845 
Q 2509 3994 2228 3994 
Q 1941 3994 1786 3844 
Q 1631 3694 1631 3419 
z
" transform="scale(0.015625)"/>
      <path id="DejaVuSans-Bold-30" d="M 2944 2338 
Q 2944 3213 2780 3570 
Q 2616 3928 2228 3928 
Q 1841 3928 1675 3570 
Q 1509 3213 1509 2338 
Q 1509 1453 1675 1090 
Q 1841 728 2228 728 
Q 2613 728 2778 1090 
Q 2944 1453 2944 2338 
z
M 4147 2328 
Q 4147 1169 3647 539 
Q 3147 -91 2228 -91 
Q 1306 -91 806 539 
Q 306 1169 306 2328 
Q 306 3491 806 4120 
Q 1306 4750 2228 4750 
Q 3147 4750 3647 4120 
Q 4147 3491 4147 2328 
z
" transform="scale(0.015625)"/>
      <path id="DejaVuSans-Bold-48" d="M 588 4666 
L 1791 4666 
L 1791 2888 
L 3566 2888 
L 3566 4666 
L 4769 4666 
L 4769 0 
L 3566 0 
L 3566 1978 
L 1791 1978 
L 1791 0 
L 588 0 
L 588 4666 
z
" transform="scale(0.015625)"/>
      <path id="DejaVuSans-Bold-7a" d="M 366 3500 
L 3419 3500 
L 3419 2719 
L 1575 800 
L 3419 800 
L 3419 0 
L 288 0 
L 288 781 
L 2131 2700 
L 366 2700 
L 366 3500 
z
" transform="scale(0.015625)"/>
     </defs>
     <use xlink:href="#DejaVuSans-Bold-b1"/>
     <use xlink:href="#DejaVuSans-Bold-38" transform="translate(83.789062 0)"/>
     <use xlink:href="#DejaVuSans-Bold-30" transform="translate(153.369141 0)"/>
     <use xlink:href="#DejaVuSans-Bold-30" transform="translate(222.949219 0)"/>
     <use xlink:href="#DejaVuSans-Bold-48" transform="translate(292.529297 0)"/>
     <use xlink:href="#DejaVuSans-Bold-7a" transform="translate(376.220703 0)"/>
    </g>
   </g>
   <g id="text_11">
    <!-- Schema a Blocchi Ricevitore CW (A1A) con BFO -->
    <g transform="translate(530.474531 17.837812) scale(0.14 -0.14)">
     <defs>
      <path id="DejaVuSans-Bold-53" d="M 3834 4519 
L 3834 3531 
Q 3450 3703 3084 3790 
Q 2719 3878 2394 3878 
Q 1963 3878 1756 3759 
Q 1550 3641 1550 3391 
Q 1550 3203 1689 3098 
Q 1828 2994 2194 2919 
L 2706 2816 
Q 3484 2659 3812 2340 
Q 4141 2022 4141 1434 
Q 4141 663 3683 286 
Q 3225 -91 2284 -91 
Q 1841 -91 1394 -6 
Q 947 78 500 244 
L 500 1259 
Q 947 1022 1364 901 
Q 1781 781 2169 781 
Q 2563 781 2772 912 
Q 2981 1044 2981 1288 
Q 2981 1506 2839 1625 
Q 2697 1744 2272 1838 
L 1806 1941 
Q 1106 2091 782 2419 
Q 459 2747 459 3303 
Q 459 4000 909 4375 
Q 1359 4750 2203 4750 
Q 2588 4750 2994 4692 
Q 3400 4634 3834 4519 
z
" transform="scale(0.015625)"/>
      <path id="DejaVuSans-Bold-63" d="M 3366 3391 
L 3366 2478 
Q 3138 2634 2908 2709 
Q 2678 2784 2431 2784 
Q 1963 2784 1702 2511 
Q 1441 2238 1441 1747 
Q 1441 1256 1702 982 
Q 1963 709 2431 709 
Q 2694 709 2930 787 
Q 3166 866 3366 1019 
L 3366 103 
Q 3103 6 2833 -42 
Q 2563 -91 2291 -91 
Q 1344 -91 809 395 
Q 275 881 275 1747 
Q 275 2613 809 3098 
Q 1344 3584 2291 3584 
Q 2566 3584 2833 3536 
Q 3100 3488 3366 3391 
z
" transform="scale(0.015625)"/>
      <path id="DejaVuSans-Bold-68" d="M 4056 2131 
L 4056 0 
L 2931 0 
L 2931 347 
L 2931 1625 
Q 2931 2084 2911 2256 
Q 2891 2428 2841 2509 
Q 2775 2619 2662 2680 
Q 2550 2741 2406 2741 
Q 2056 2741 1856 2470 
Q 1656 2200 1656 1722 
L 1656 0 
L 538 0 
L 538 4863 
L 1656 4863 
L 1656 2988 
Q 1909 3294 2193 3439 
Q 2478 3584 2822 3584 
Q 3428 3584 3742 3212 
Q 4056 2841 4056 2131 
z
" transform="scale(0.015625)"/>
      <path id="DejaVuSans-Bold-20" transform="scale(0.015625)"/>
      <path id="DejaVuSans-Bold-6f" d="M 2203 2784 
Q 1831 2784 1636 2517 
Q 1441 2250 1441 1747 
Q 1441 1244 1636 976 
Q 1831 709 2203 709 
Q 2569 709 2762 976 
Q 2956 1244 2956 1747 
Q 2956 2250 2762 2517 
Q 2569 2784 2203 2784 
z
M 2203 3584 
Q 3106 3584 3614 3096 
Q 4122 2609 4122 1747 
Q 4122 884 3614 396 
Q 3106 -91 2203 -91 
Q 1297 -91 786 396 
Q 275 884 275 1747 
Q 275 2609 786 3096 
Q 1297 3584 2203 3584 
z
" transform="scale(0.015625)"/>
      <path id="DejaVuSans-Bold-76" d="M 97 3500 
L 1216 3500 
L 2088 1081 
L 2956 3500 
L 4078 3500 
L 2700 0 
L 1472 0 
L 97 3500 
z
" transform="scale(0.015625)"/>
      <path id="DejaVuSans-Bold-43" d="M 4288 256 
Q 3956 84 3597 -3 
Q 3238 -91 2847 -91 
Q 1681 -91 1000 561 
Q 319 1213 319 2328 
Q 319 3447 1000 4098 
Q 1681 4750 2847 4750 
Q 3238 4750 3597 4662 
Q 3956 4575 4288 4403 
L 4288 3438 
Q 3953 3666 3628 3772 
Q 3303 3878 2944 3878 
Q 2300 3878 1931 3465 
Q 1563 3053 1563 2328 
Q 1563 1606 1931 1193 
Q 2300 781 2944 781 
Q 3303 781 3628 887 
Q 3953 994 4288 1222 
L 4288 256 
z
" transform="scale(0.015625)"/>
      <path id="DejaVuSans-Bold-57" d="M 191 4666 
L 1344 4666 
L 2150 1275 
L 2950 4666 
L 4109 4666 
L 4909 1275 
L 5716 4666 
L 6859 4666 
L 5759 0 
L 4372 0 
L 3525 3547 
L 2688 0 
L 1300 0 
L 191 4666 
z
" transform="scale(0.015625)"/>
      <path id="DejaVuSans-Bold-28" d="M 2413 -844 
L 1484 -844 
Q 1006 -72 778 623 
Q 550 1319 550 2003 
Q 550 2688 779 3389 
Q 1009 4091 1484 4856 
L 2413 4856 
Q 2013 4116 1813 3408 
Q 1613 2700 1613 2009 
Q 1613 1319 1811 609 
Q 2009 -100 2413 -844 
z
" transform="scale(0.015625)"/>
      <path id="DejaVuSans-Bold-31" d="M 750 831 
L 1813 831 
L 1813 3847 
L 722 3622 
L 722 4441 
L 1806 4666 
L 2950 4666 
L 2950 831 
L 4013 831 
L 4013 0 
L 750 0 
L 750 831 
z
" transform="scale(0.015625)"/>
      <path id="DejaVuSans-Bold-29" d="M 513 -844 
Q 913 -100 1113 609 
Q 1313 1319 1313 2009 
Q 1313 2700 1113 3408 
Q 913 4116 513 4856 
L 1441 4856 
Q 1916 4091 2145 3389 
Q 2375 2688 2375 2003 
Q 2375 1319 2147 623 
Q 1919 -72 1441 -844 
L 513 -844 
z
" transform="scale(0.015625)"/>
     </defs>
     <use xlink:href="#DejaVuSans-Bold-53"/>
     <use xlink:href="#DejaVuSans-Bold-63" transform="translate(72.021484 0)"/>
     <use xlink:href="#DejaVuSans-Bold-68" transform="translate(131.298828 0)"/>
     <use xlink:href="#DejaVuSans-Bold-65" transform="translate(202.490234 0)"/>
     <use xlink:href="#DejaVuSans-Bold-6d" transform="translate(270.3125 0)"/>
     <use xlink:href="#DejaVuSans-Bold-61" transform="translate(374.511719 0)"/>
     <use xlink:href="#DejaVuSans-Bold-20" transform="translate(441.992188 0)"/>
     <use xlink:href="#DejaVuSans-Bold-61" transform="translate(476.806641 0)"/>
     <use xlink:href="#DejaVuSans-Bold-20" transform="translate(544.287109 0)"/>
     <use xlink:href="#DejaVuSans-Bold-42" transform="translate(579.101562 0)"/>
     <use xlink:href="#DejaVuSans-Bold-6c" transform="translate(655.322266 0)"/>
     <use xlink:href="#DejaVuSans-Bold-6f" transform="translate(689.599609 0)"/>
     <use xlink:href="#DejaVuSans-Bold-63" transform="translate(758.300781 0)"/>
     <use xlink:href="#DejaVuSans-Bold-63" transform="translate(817.578125 0)"/>
     <use xlink:href="#DejaVuSans-Bold-68" transform="translate(876.855469 0)"/>
     <use xlink:href="#DejaVuSans-Bold-69" transform="translate(948.046875 0)"/>
     <use xlink:href="#DejaVuSans-Bold-20" transform="translate(982.324219 0)"/>
     <use xlink:href="#DejaVuSans-Bold-52" transform="translate(1017.138672 0)"/>
     <use xlink:href="#DejaVuSans-Bold-69" transform="translate(1094.140625 0)"/>
     <use xlink:href="#DejaVuSans-Bold-63" transform="translate(1128.417969 0)"/>
     <use xlink:href="#DejaVuSans-Bold-65" transform="translate(1187.695312 0)"/>
     <use xlink:href="#DejaVuSans-Bold-76" transform="translate(1255.517578 0)"/>
     <use xlink:href="#DejaVuSans-Bold-69" transform="translate(1320.703125 0)"/>
     <use xlink:href="#DejaVuSans-Bold-74" transform="translate(1354.980469 0)"/>
     <use xlink:href="#DejaVuSans-Bold-6f" transform="translate(1402.783203 0)"/>
     <use xlink:href="#DejaVuSans-Bold-72" transform="translate(1471.484375 0)"/>
     <use xlink:href="#DejaVuSans-Bold-65" transform="translate(1520.800781 0)"/>
     <use xlink:href="#DejaVuSans-Bold-20" transform="translate(1588.623047 0)"/>
     <use xlink:href="#DejaVuSans-Bold-43" transform="translate(1623.4375 0)"/>
     <use xlink:href="#DejaVuSans-Bold-57" transform="translate(1696.826172 0)"/>
     <use xlink:href="#DejaVuSans-Bold-20" transform="translate(1807.128906 0)"/>
     <use xlink:href="#DejaVuSans-Bold-28" transform="translate(1841.943359 0)"/>
     <use xlink:href="#DejaVuSans-Bold-41" transform="translate(1887.646484 0)"/>
     <use xlink:href="#DejaVuSans-Bold-31" transform="translate(1965.039062 0)"/>
     <use xlink:href="#DejaVuSans-Bold-41" transform="translate(2034.619141 0)"/>
     <use xlink:href="#DejaVuSans-Bold-29" transform="translate(2112.011719 0)"/>
     <use xlink:href="#DejaVuSans-Bold-20" transform="translate(2157.714844 0)"/>
     <use xlink:href="#DejaVuSans-Bold-63" transform="translate(2192.529297 0)"/>
     <use xlink:href="#DejaVuSans-Bold-6f" transform="translate(2251.806641 0)"/>
     <use xlink:href="#DejaVuSans-Bold-6e" transform="translate(2320.507812 0)"/>
     <use xlink:href="#DejaVuSans-Bold-20" transform="translate(2391.699219 0)"/>
     <use xlink:href="#DejaVuSans-Bold-42" transform="translate(2426.513672 0)"/>
     <use xlink:href="#DejaVuSans-Bold-46" transform="translate(2502.734375 0)"/>
     <use xlink:href="#DejaVuSans-Bold-4f" transform="translate(2571.044922 0)"/>
    </g>
   </g>
  </g>
 </g>
 <defs>
  <clipPath id="p467f247e63">
   <rect x="7.2" y="37.837812" width="1418.4" height="379.6"/>
  </clipPath>
 </defs>
</svg>
