<?xml version="1.0" encoding="utf-8" standalone="no"?>
<!DOCTYPE svg PUBLIC "-//W3C//DTD SVG 1.1//EN"
  "http://www.w3.org/Graphics/SVG/1.1/DTD/svg11.dtd">
<svg xmlns:xlink="http://www.w3.org/1999/xlink" width="1432.8pt" height="424.637812pt" viewBox="0 0 1432.8 424.637812" xmlns="http://www.w3.org/2000/svg" version="1.1">
 <metadata>
  <rdf:RDF xmlns:dc="http://purl.org/dc/elements/1.1/" xmlns:cc="http://creativecommons.org/ns#" xmlns:rdf="http://www.w3.org/1999/02/22-rdf-syntax-ns#">
   <cc:Work>
    <dc:type rdf:resource="http://purl.org/dc/dcmitype/StillImage"/>
    <dc:date>2025-11-22T10:26:01.043526</dc:date>
    <dc:format>image/svg+xml</dc:format>
    <dc:creator>
     <cc:Agent>
      <dc:title>Matplotlib v3.10.7, https://matplotlib.org/</dc:title>
     </cc:Agent>
    </dc:creator>
   </cc:Work>
  </rdf:RDF>
 </metadata>
 <defs>
  <style type="text/css">*{stroke-linejoin: round; stroke-linecap: butt}</style>
 </defs>
 <g id="figure_1">
  <g id="patch_1">
   <path d="M 0 424.637812 
L 1432.8 424.637812 
L 1432.8 0 
L 0 0 
z
" style="fill: #ffffff"/>
  </g>
  <g id="axes_1">
   <g id="patch_2">
    <path d="M 42.66 235.229812 
L 127.764 235.229812 
Q 134.856 235.229812 134.856 227.637812 
L 134.856 151.717812 
Q 134.856 144.125812 127.764 144.125812 
L 42.66 144.125812 
Q 35.568 144.125812 35.568 151.717812 
L 35.568 227.637812 
Q 35.568 235.229812 42.66 235.229812 
z
" clip-path="url(#p40f483fea5)" style="fill: #e6f3ff; stroke: #000000; stroke-width: 2; stroke-linejoin: miter"/>
   </g>
   <g id="patch_3">
    <path d="M 163.224 235.229812 
L 248.328 235.229812 
Q 255.42 235.229812 255.42 227.637812 
L 255.42 151.717812 
Q 255.42 144.125812 248.328 144.125812 
L 163.224 144.125812 
Q 156.132 144.125812 156.132 151.717812 
L 156.132 227.637812 
Q 156.132 235.229812 163.224 235.229812 
z
" clip-path="url(#p40f483fea5)" style="fill: #ffe6e6; stroke: #000000; stroke-width: 2; stroke-linejoin: miter"/>
   </g>
   <g id="patch_4">
    <path d="M 283.788 235.229812 
L 368.892 235.229812 
Q 375.984 235.229812 375.984 227.637812 
L 375.984 151.717812 
Q 375.984 144.125812 368.892 144.125812 
L 283.788 144.125812 
Q 276.696 144.125812 276.696 151.717812 
L 276.696 227.637812 
Q 276.696 235.229812 283.788 235.229812 
z
" clip-path="url(#p40f483fea5)" style="fill: #e6ffe6; stroke: #000000; stroke-width: 2; stroke-linejoin: miter"/>
   </g>
   <g id="patch_5">
    <path d="M 404.352 235.229812 
L 489.456 235.229812 
Q 496.548 235.229812 496.548 227.637812 
L 496.548 151.717812 
Q 496.548 144.125812 489.456 144.125812 
L 404.352 144.125812 
Q 397.26 144.125812 397.26 151.717812 
L 397.26 227.637812 
Q 397.26 235.229812 404.352 235.229812 
z
" clip-path="url(#p40f483fea5)" style="fill: #ffcccc; stroke: #000000; stroke-width: 2; stroke-linejoin: miter"/>
   </g>
   <g id="patch_6">
    <path d="M 524.916 235.229812 
L 610.02 235.229812 
Q 617.112 235.229812 617.112 227.637812 
L 617.112 151.717812 
Q 617.112 144.125812 610.02 144.125812 
L 524.916 144.125812 
Q 517.824 144.125812 517.824 151.717812 
L 517.824 227.637812 
Q 517.824 235.229812 524.916 235.229812 
z
" clip-path="url(#p40f483fea5)" style="fill: #fff2e6; stroke: #000000; stroke-width: 2; stroke-linejoin: miter"/>
   </g>
   <g id="patch_7">
    <path d="M 645.48 235.229812 
L 730.584 235.229812 
Q 737.676 235.229812 737.676 227.637812 
L 737.676 151.717812 
Q 737.676 144.125812 730.584 144.125812 
L 645.48 144.125812 
Q 638.388 144.125812 638.388 151.717812 
L 638.388 227.637812 
Q 638.388 235.229812 645.48 235.229812 
z
" clip-path="url(#p40f483fea5)" style="fill: #ffffe6; stroke: #000000; stroke-width: 2; stroke-linejoin: miter"/>
   </g>
   <g id="patch_8">
    <path d="M 766.044 235.229812 
L 851.148 235.229812 
Q 858.24 235.229812 858.24 227.637812 
L 858.24 151.717812 
Q 858.24 144.125812 851.148 144.125812 
L 766.044 144.125812 
Q 758.952 144.125812 758.952 151.717812 
L 758.952 227.637812 
Q 758.952 235.229812 766.044 235.229812 
z
" clip-path="url(#p40f483fea5)" style="fill: #e6f3ff; stroke: #000000; stroke-width: 2; stroke-linejoin: miter"/>
   </g>
   <g id="patch_9">
    <path d="M 163.224 121.349812 
L 248.328 121.349812 
Q 255.42 121.349812 255.42 113.757812 
L 255.42 53.021812 
Q 255.42 45.429812 248.328 45.429812 
L 163.224 45.429812 
Q 156.132 45.429812 156.132 53.021812 
L 156.132 113.757812 
Q 156.132 121.349812 163.224 121.349812 
z
" clip-path="url(#p40f483fea5)" style="fill: #f0f0f0; stroke: #000000; stroke-width: 2; stroke-linejoin: miter"/>
   </g>
   <g id="patch_10">
    <path d="M 163.224 349.109812 
L 248.328 349.109812 
Q 255.42 349.109812 255.42 341.517812 
L 255.42 280.781812 
Q 255.42 273.189812 248.328 273.189812 
L 163.224 273.189812 
Q 156.132 273.189812 156.132 280.781812 
L 156.132 341.517812 
Q 156.132 349.109812 163.224 349.109812 
z
" clip-path="url(#p40f483fea5)" style="fill: #e6e6ff; stroke: #000000; stroke-width: 2; stroke-linejoin: miter"/>
   </g>
   <g id="patch_11">
    <path d="M 163.224 189.677812 
L 156.132 193.473812 
L 156.132 189.715772 
L 127.764 189.715772 
L 127.764 189.639852 
L 156.132 189.639852 
L 156.132 185.881812 
z
" clip-path="url(#p40f483fea5)" style="stroke: #000000; stroke-linejoin: miter"/>
   </g>
   <g id="patch_12">
    <path d="M 283.788 189.677812 
L 276.696 193.473812 
L 276.696 189.715772 
L 255.42 189.715772 
L 255.42 189.639852 
L 276.696 189.639852 
L 276.696 185.881812 
z
" clip-path="url(#p40f483fea5)" style="stroke: #000000; stroke-linejoin: miter"/>
   </g>
   <g id="patch_13">
    <path d="M 404.352 189.677812 
L 397.26 193.473812 
L 397.26 189.715772 
L 375.984 189.715772 
L 375.984 189.639852 
L 397.26 189.639852 
L 397.26 185.881812 
z
" clip-path="url(#p40f483fea5)" style="stroke: #000000; stroke-linejoin: miter"/>
   </g>
   <g id="patch_14">
    <path d="M 524.916 189.677812 
L 517.824 193.473812 
L 517.824 189.715772 
L 496.548 189.715772 
L 496.548 189.639852 
L 517.824 189.639852 
L 517.824 185.881812 
z
" clip-path="url(#p40f483fea5)" style="stroke: #000000; stroke-linejoin: miter"/>
   </g>
   <g id="patch_15">
    <path d="M 645.48 189.677812 
L 638.388 193.473812 
L 638.388 189.715772 
L 617.112 189.715772 
L 617.112 189.639852 
L 638.388 189.639852 
L 638.388 185.881812 
z
" clip-path="url(#p40f483fea5)" style="stroke: #000000; stroke-linejoin: miter"/>
   </g>
   <g id="patch_16">
    <path d="M 766.044 189.677812 
L 758.952 193.473812 
L 758.952 189.715772 
L 737.676 189.715772 
L 737.676 189.639852 
L 758.952 189.639852 
L 758.952 185.881812 
z
" clip-path="url(#p40f483fea5)" style="stroke: #000000; stroke-linejoin: miter"/>
   </g>
   <g id="patch_17">
    <path d="M 929.16 189.677812 
L 922.068 193.473812 
L 922.068 189.715772 
L 858.24 189.715772 
L 858.24 189.639852 
L 922.068 189.639852 
L 922.068 185.881812 
z
" clip-path="url(#p40f483fea5)" style="stroke: #000000; stroke-linejoin: miter"/>
   </g>
   <g id="patch_18">
    <path d="M 255.42 151.717812 
L 251.874 144.125812 
L 255.38454 144.125812 
L 255.38454 83.389812 
L 255.45546 83.389812 
L 255.45546 144.125812 
L 258.966 144.125812 
z
" clip-path="url(#p40f483fea5)" style="stroke: #000000; stroke-linejoin: miter"/>
   </g>
   <g id="patch_19">
    <path d="M 163.224 151.717812 
L 170.316 147.921812 
L 170.316 151.679852 
L 255.42 151.679852 
L 255.42 151.755772 
L 170.316 151.755772 
L 170.316 155.513812 
z
" clip-path="url(#p40f483fea5)" style="stroke: #000000; stroke-linejoin: miter"/>
   </g>
   <g id="patch_20">
    <path d="M 255.42 273.189812 
L 258.966 280.781812 
L 255.45546 280.781812 
L 255.45546 311.149812 
L 255.38454 311.149812 
L 255.38454 280.781812 
L 251.874 280.781812 
z
" clip-path="url(#p40f483fea5)" style="stroke: #000000; stroke-linejoin: miter"/>
   </g>
   <g id="patch_21">
    <path d="M 163.224 273.189812 
L 170.316 269.393812 
L 170.316 273.151852 
L 255.42 273.151852 
L 255.42 273.227772 
L 170.316 273.227772 
L 170.316 276.985812 
z
" clip-path="url(#p40f483fea5)" style="stroke: #000000; stroke-linejoin: miter"/>
   </g>
   <g id="text_1">
    <!-- Oscillatore -->
    <g transform="translate(54.822938 186.838281) scale(0.1 -0.1)">
     <defs>
      <path id="DejaVuSans-Bold-4f" d="M 2719 3878 
Q 2169 3878 1866 3472 
Q 1563 3066 1563 2328 
Q 1563 1594 1866 1187 
Q 2169 781 2719 781 
Q 3272 781 3575 1187 
Q 3878 1594 3878 2328 
Q 3878 3066 3575 3472 
Q 3272 3878 2719 3878 
z
M 2719 4750 
Q 3844 4750 4481 4106 
Q 5119 3463 5119 2328 
Q 5119 1197 4481 553 
Q 3844 -91 2719 -91 
Q 1597 -91 958 553 
Q 319 1197 319 2328 
Q 319 3463 958 4106 
Q 1597 4750 2719 4750 
z
" transform="scale(0.015625)"/>
      <path id="DejaVuSans-Bold-73" d="M 3272 3391 
L 3272 2541 
Q 2913 2691 2578 2766 
Q 2244 2841 1947 2841 
Q 1628 2841 1473 2761 
Q 1319 2681 1319 2516 
Q 1319 2381 1436 2309 
Q 1553 2238 1856 2203 
L 2053 2175 
Q 2913 2066 3209 1816 
Q 3506 1566 3506 1031 
Q 3506 472 3093 190 
Q 2681 -91 1863 -91 
Q 1516 -91 1145 -36 
Q 775 19 384 128 
L 384 978 
Q 719 816 1070 734 
Q 1422 653 1784 653 
Q 2113 653 2278 743 
Q 2444 834 2444 1013 
Q 2444 1163 2330 1236 
Q 2216 1309 1875 1350 
L 1678 1375 
Q 931 1469 631 1722 
Q 331 1975 331 2491 
Q 331 3047 712 3315 
Q 1094 3584 1881 3584 
Q 2191 3584 2531 3537 
Q 2872 3491 3272 3391 
z
" transform="scale(0.015625)"/>
      <path id="DejaVuSans-Bold-63" d="M 3366 3391 
L 3366 2478 
Q 3138 2634 2908 2709 
Q 2678 2784 2431 2784 
Q 1963 2784 1702 2511 
Q 1441 2238 1441 1747 
Q 1441 1256 1702 982 
Q 1963 709 2431 709 
Q 2694 709 2930 787 
Q 3166 866 3366 1019 
L 3366 103 
Q 3103 6 2833 -42 
Q 2563 -91 2291 -91 
Q 1344 -91 809 395 
Q 275 881 275 1747 
Q 275 2613 809 3098 
Q 1344 3584 2291 3584 
Q 2566 3584 2833 3536 
Q 3100 3488 3366 3391 
z
" transform="scale(0.015625)"/>
      <path id="DejaVuSans-Bold-69" d="M 538 3500 
L 1656 3500 
L 1656 0 
L 538 0 
L 538 3500 
z
M 538 4863 
L 1656 4863 
L 1656 3950 
L 538 3950 
L 538 4863 
z
" transform="scale(0.015625)"/>
      <path id="DejaVuSans-Bold-6c" d="M 538 4863 
L 1656 4863 
L 1656 0 
L 538 0 
L 538 4863 
z
" transform="scale(0.015625)"/>
      <path id="DejaVuSans-Bold-61" d="M 2106 1575 
Q 1756 1575 1579 1456 
Q 1403 1338 1403 1106 
Q 1403 894 1545 773 
Q 1688 653 1941 653 
Q 2256 653 2472 879 
Q 2688 1106 2688 1447 
L 2688 1575 
L 2106 1575 
z
M 3816 1997 
L 3816 0 
L 2688 0 
L 2688 519 
Q 2463 200 2181 54 
Q 1900 -91 1497 -91 
Q 953 -91 614 226 
Q 275 544 275 1050 
Q 275 1666 698 1953 
Q 1122 2241 2028 2241 
L 2688 2241 
L 2688 2328 
Q 2688 2594 2478 2717 
Q 2269 2841 1825 2841 
Q 1466 2841 1156 2769 
Q 847 2697 581 2553 
L 581 3406 
Q 941 3494 1303 3539 
Q 1666 3584 2028 3584 
Q 2975 3584 3395 3211 
Q 3816 2838 3816 1997 
z
" transform="scale(0.015625)"/>
      <path id="DejaVuSans-Bold-74" d="M 1759 4494 
L 1759 3500 
L 2913 3500 
L 2913 2700 
L 1759 2700 
L 1759 1216 
Q 1759 972 1856 886 
Q 1953 800 2241 800 
L 2816 800 
L 2816 0 
L 1856 0 
Q 1194 0 917 276 
Q 641 553 641 1216 
L 641 2700 
L 84 2700 
L 84 3500 
L 641 3500 
L 641 4494 
L 1759 4494 
z
" transform="scale(0.015625)"/>
      <path id="DejaVuSans-Bold-6f" d="M 2203 2784 
Q 1831 2784 1636 2517 
Q 1441 2250 1441 1747 
Q 1441 1244 1636 976 
Q 1831 709 2203 709 
Q 2569 709 2762 976 
Q 2956 1244 2956 1747 
Q 2956 2250 2762 2517 
Q 2569 2784 2203 2784 
z
M 2203 3584 
Q 3106 3584 3614 3096 
Q 4122 2609 4122 1747 
Q 4122 884 3614 396 
Q 3106 -91 2203 -91 
Q 1297 -91 786 396 
Q 275 884 275 1747 
Q 275 2609 786 3096 
Q 1297 3584 2203 3584 
z
" transform="scale(0.015625)"/>
      <path id="DejaVuSans-Bold-72" d="M 3138 2547 
Q 2991 2616 2845 2648 
Q 2700 2681 2553 2681 
Q 2122 2681 1889 2404 
Q 1656 2128 1656 1613 
L 1656 0 
L 538 0 
L 538 3500 
L 1656 3500 
L 1656 2925 
Q 1872 3269 2151 3426 
Q 2431 3584 2822 3584 
Q 2878 3584 2943 3579 
Q 3009 3575 3134 3559 
L 3138 2547 
z
" transform="scale(0.015625)"/>
      <path id="DejaVuSans-Bold-65" d="M 4031 1759 
L 4031 1441 
L 1416 1441 
Q 1456 1047 1700 850 
Q 1944 653 2381 653 
Q 2734 653 3104 758 
Q 3475 863 3866 1075 
L 3866 213 
Q 3469 63 3072 -14 
Q 2675 -91 2278 -91 
Q 1328 -91 801 392 
Q 275 875 275 1747 
Q 275 2603 792 3093 
Q 1309 3584 2216 3584 
Q 3041 3584 3536 3087 
Q 4031 2591 4031 1759 
z
M 2881 2131 
Q 2881 2450 2695 2645 
Q 2509 2841 2209 2841 
Q 1884 2841 1681 2658 
Q 1478 2475 1428 2131 
L 2881 2131 
z
" transform="scale(0.015625)"/>
     </defs>
     <use xlink:href="#DejaVuSans-Bold-4f"/>
     <use xlink:href="#DejaVuSans-Bold-73" transform="translate(85.009766 0)"/>
     <use xlink:href="#DejaVuSans-Bold-63" transform="translate(144.53125 0)"/>
     <use xlink:href="#DejaVuSans-Bold-69" transform="translate(203.808594 0)"/>
     <use xlink:href="#DejaVuSans-Bold-6c" transform="translate(238.085938 0)"/>
     <use xlink:href="#DejaVuSans-Bold-6c" transform="translate(272.363281 0)"/>
     <use xlink:href="#DejaVuSans-Bold-61" transform="translate(306.640625 0)"/>
     <use xlink:href="#DejaVuSans-Bold-74" transform="translate(374.121094 0)"/>
     <use xlink:href="#DejaVuSans-Bold-6f" transform="translate(421.923828 0)"/>
     <use xlink:href="#DejaVuSans-Bold-72" transform="translate(490.625 0)"/>
     <use xlink:href="#DejaVuSans-Bold-65" transform="translate(539.941406 0)"/>
    </g>
    <!-- FM -->
    <g transform="translate(76.820594 198.036094) scale(0.1 -0.1)">
     <defs>
      <path id="DejaVuSans-Bold-46" d="M 588 4666 
L 3834 4666 
L 3834 3756 
L 1791 3756 
L 1791 2888 
L 3713 2888 
L 3713 1978 
L 1791 1978 
L 1791 0 
L 588 0 
L 588 4666 
z
" transform="scale(0.015625)"/>
      <path id="DejaVuSans-Bold-4d" d="M 588 4666 
L 2119 4666 
L 3181 2169 
L 4250 4666 
L 5778 4666 
L 5778 0 
L 4641 0 
L 4641 3413 
L 3566 897 
L 2803 897 
L 1728 3413 
L 1728 0 
L 588 0 
L 588 4666 
z
" transform="scale(0.015625)"/>
     </defs>
     <use xlink:href="#DejaVuSans-Bold-46"/>
     <use xlink:href="#DejaVuSans-Bold-4d" transform="translate(68.310547 0)"/>
    </g>
   </g>
   <g id="text_2">
    <!-- Modulatore -->
    <g transform="translate(173.456469 186.838281) scale(0.1 -0.1)">
     <defs>
      <path id="DejaVuSans-Bold-64" d="M 2919 2988 
L 2919 4863 
L 4044 4863 
L 4044 0 
L 2919 0 
L 2919 506 
Q 2688 197 2409 53 
Q 2131 -91 1766 -91 
Q 1119 -91 703 423 
Q 288 938 288 1747 
Q 288 2556 703 3070 
Q 1119 3584 1766 3584 
Q 2128 3584 2408 3439 
Q 2688 3294 2919 2988 
z
M 2181 722 
Q 2541 722 2730 984 
Q 2919 1247 2919 1747 
Q 2919 2247 2730 2509 
Q 2541 2772 2181 2772 
Q 1825 2772 1636 2509 
Q 1447 2247 1447 1747 
Q 1447 1247 1636 984 
Q 1825 722 2181 722 
z
" transform="scale(0.015625)"/>
      <path id="DejaVuSans-Bold-75" d="M 500 1363 
L 500 3500 
L 1625 3500 
L 1625 3150 
Q 1625 2866 1622 2436 
Q 1619 2006 1619 1863 
Q 1619 1441 1641 1255 
Q 1663 1069 1716 984 
Q 1784 875 1895 815 
Q 2006 756 2150 756 
Q 2500 756 2700 1025 
Q 2900 1294 2900 1772 
L 2900 3500 
L 4019 3500 
L 4019 0 
L 2900 0 
L 2900 506 
Q 2647 200 2364 54 
Q 2081 -91 1741 -91 
Q 1134 -91 817 281 
Q 500 653 500 1363 
z
" transform="scale(0.015625)"/>
     </defs>
     <use xlink:href="#DejaVuSans-Bold-4d"/>
     <use xlink:href="#DejaVuSans-Bold-6f" transform="translate(99.511719 0)"/>
     <use xlink:href="#DejaVuSans-Bold-64" transform="translate(168.212891 0)"/>
     <use xlink:href="#DejaVuSans-Bold-75" transform="translate(239.794922 0)"/>
     <use xlink:href="#DejaVuSans-Bold-6c" transform="translate(310.986328 0)"/>
     <use xlink:href="#DejaVuSans-Bold-61" transform="translate(345.263672 0)"/>
     <use xlink:href="#DejaVuSans-Bold-74" transform="translate(412.744141 0)"/>
     <use xlink:href="#DejaVuSans-Bold-6f" transform="translate(460.546875 0)"/>
     <use xlink:href="#DejaVuSans-Bold-72" transform="translate(529.248047 0)"/>
     <use xlink:href="#DejaVuSans-Bold-65" transform="translate(578.564453 0)"/>
    </g>
    <!-- Frequenza -->
    <g transform="translate(176.448656 198.036094) scale(0.1 -0.1)">
     <defs>
      <path id="DejaVuSans-Bold-71" d="M 2181 2772 
Q 1825 2772 1636 2509 
Q 1447 2247 1447 1747 
Q 1447 1247 1636 984 
Q 1825 722 2181 722 
Q 2541 722 2730 984 
Q 2919 1247 2919 1747 
Q 2919 2247 2730 2509 
Q 2541 2772 2181 2772 
z
M 2919 506 
Q 2688 197 2409 53 
Q 2131 -91 1766 -91 
Q 1119 -91 703 423 
Q 288 938 288 1747 
Q 288 2556 703 3067 
Q 1119 3578 1766 3578 
Q 2131 3578 2409 3434 
Q 2688 3291 2919 2981 
L 2919 3500 
L 4044 3500 
L 4044 -1331 
L 2919 -1331 
L 2919 506 
z
" transform="scale(0.015625)"/>
      <path id="DejaVuSans-Bold-6e" d="M 4056 2131 
L 4056 0 
L 2931 0 
L 2931 347 
L 2931 1631 
Q 2931 2084 2911 2256 
Q 2891 2428 2841 2509 
Q 2775 2619 2662 2680 
Q 2550 2741 2406 2741 
Q 2056 2741 1856 2470 
Q 1656 2200 1656 1722 
L 1656 0 
L 538 0 
L 538 3500 
L 1656 3500 
L 1656 2988 
Q 1909 3294 2193 3439 
Q 2478 3584 2822 3584 
Q 3428 3584 3742 3212 
Q 4056 2841 4056 2131 
z
" transform="scale(0.015625)"/>
      <path id="DejaVuSans-Bold-7a" d="M 366 3500 
L 3419 3500 
L 3419 2719 
L 1575 800 
L 3419 800 
L 3419 0 
L 288 0 
L 288 781 
L 2131 2700 
L 366 2700 
L 366 3500 
z
" transform="scale(0.015625)"/>
     </defs>
     <use xlink:href="#DejaVuSans-Bold-46"/>
     <use xlink:href="#DejaVuSans-Bold-72" transform="translate(61.935547 0)"/>
     <use xlink:href="#DejaVuSans-Bold-65" transform="translate(111.251953 0)"/>
     <use xlink:href="#DejaVuSans-Bold-71" transform="translate(179.074219 0)"/>
     <use xlink:href="#DejaVuSans-Bold-75" transform="translate(250.65625 0)"/>
     <use xlink:href="#DejaVuSans-Bold-65" transform="translate(321.847656 0)"/>
     <use xlink:href="#DejaVuSans-Bold-6e" transform="translate(389.669922 0)"/>
     <use xlink:href="#DejaVuSans-Bold-7a" transform="translate(460.861328 0)"/>
     <use xlink:href="#DejaVuSans-Bold-61" transform="translate(519.064453 0)"/>
    </g>
   </g>
   <g id="text_3">
    <!-- Amp -->
    <g transform="translate(313.681406 186.838281) scale(0.1 -0.1)">
     <defs>
      <path id="DejaVuSans-Bold-41" d="M 3419 850 
L 1538 850 
L 1241 0 
L 31 0 
L 1759 4666 
L 3194 4666 
L 4922 0 
L 3713 0 
L 3419 850 
z
M 1838 1716 
L 3116 1716 
L 2478 3572 
L 1838 1716 
z
" transform="scale(0.015625)"/>
      <path id="DejaVuSans-Bold-6d" d="M 3781 2919 
Q 3994 3244 4286 3414 
Q 4578 3584 4928 3584 
Q 5531 3584 5847 3212 
Q 6163 2841 6163 2131 
L 6163 0 
L 5038 0 
L 5038 1825 
Q 5041 1866 5042 1909 
Q 5044 1953 5044 2034 
Q 5044 2406 4934 2573 
Q 4825 2741 4581 2741 
Q 4263 2741 4089 2478 
Q 3916 2216 3909 1719 
L 3909 0 
L 2784 0 
L 2784 1825 
Q 2784 2406 2684 2573 
Q 2584 2741 2328 2741 
Q 2006 2741 1831 2477 
Q 1656 2213 1656 1722 
L 1656 0 
L 531 0 
L 531 3500 
L 1656 3500 
L 1656 2988 
Q 1863 3284 2130 3434 
Q 2397 3584 2719 3584 
Q 3081 3584 3359 3409 
Q 3638 3234 3781 2919 
z
" transform="scale(0.015625)"/>
      <path id="DejaVuSans-Bold-70" d="M 1656 506 
L 1656 -1331 
L 538 -1331 
L 538 3500 
L 1656 3500 
L 1656 2988 
Q 1888 3294 2169 3439 
Q 2450 3584 2816 3584 
Q 3463 3584 3878 3070 
Q 4294 2556 4294 1747 
Q 4294 938 3878 423 
Q 3463 -91 2816 -91 
Q 2450 -91 2169 54 
Q 1888 200 1656 506 
z
M 2400 2772 
Q 2041 2772 1848 2508 
Q 1656 2244 1656 1747 
Q 1656 1250 1848 986 
Q 2041 722 2400 722 
Q 2759 722 2948 984 
Q 3138 1247 3138 1747 
Q 3138 2247 2948 2509 
Q 2759 2772 2400 2772 
z
" transform="scale(0.015625)"/>
     </defs>
     <use xlink:href="#DejaVuSans-Bold-41"/>
     <use xlink:href="#DejaVuSans-Bold-6d" transform="translate(77.392578 0)"/>
     <use xlink:href="#DejaVuSans-Bold-70" transform="translate(181.591797 0)"/>
    </g>
    <!-- RF -->
    <g transform="translate(319.074375 198.036094) scale(0.1 -0.1)">
     <defs>
      <path id="DejaVuSans-Bold-52" d="M 2297 2597 
Q 2675 2597 2839 2737 
Q 3003 2878 3003 3200 
Q 3003 3519 2839 3656 
Q 2675 3794 2297 3794 
L 1791 3794 
L 1791 2597 
L 2297 2597 
z
M 1791 1766 
L 1791 0 
L 588 0 
L 588 4666 
L 2425 4666 
Q 3347 4666 3776 4356 
Q 4206 4047 4206 3378 
Q 4206 2916 3982 2619 
Q 3759 2322 3309 2181 
Q 3556 2125 3751 1926 
Q 3947 1728 4147 1325 
L 4800 0 
L 3519 0 
L 2950 1159 
Q 2778 1509 2601 1637 
Q 2425 1766 2131 1766 
L 1791 1766 
z
" transform="scale(0.015625)"/>
     </defs>
     <use xlink:href="#DejaVuSans-Bold-52"/>
     <use xlink:href="#DejaVuSans-Bold-46" transform="translate(77.001953 0)"/>
    </g>
   </g>
   <g id="text_4">
    <!-- Moltiplicatore -->
    <g transform="translate(407.64775 192.437187) scale(0.1 -0.1)">
     <use xlink:href="#DejaVuSans-Bold-4d"/>
     <use xlink:href="#DejaVuSans-Bold-6f" transform="translate(99.511719 0)"/>
     <use xlink:href="#DejaVuSans-Bold-6c" transform="translate(168.212891 0)"/>
     <use xlink:href="#DejaVuSans-Bold-74" transform="translate(202.490234 0)"/>
     <use xlink:href="#DejaVuSans-Bold-69" transform="translate(250.292969 0)"/>
     <use xlink:href="#DejaVuSans-Bold-70" transform="translate(284.570312 0)"/>
     <use xlink:href="#DejaVuSans-Bold-6c" transform="translate(356.152344 0)"/>
     <use xlink:href="#DejaVuSans-Bold-69" transform="translate(390.429688 0)"/>
     <use xlink:href="#DejaVuSans-Bold-63" transform="translate(424.707031 0)"/>
     <use xlink:href="#DejaVuSans-Bold-61" transform="translate(483.984375 0)"/>
     <use xlink:href="#DejaVuSans-Bold-74" transform="translate(551.464844 0)"/>
     <use xlink:href="#DejaVuSans-Bold-6f" transform="translate(599.267578 0)"/>
     <use xlink:href="#DejaVuSans-Bold-72" transform="translate(667.96875 0)"/>
     <use xlink:href="#DejaVuSans-Bold-65" transform="translate(717.285156 0)"/>
    </g>
   </g>
   <g id="text_5">
    <!-- Filtro -->
    <g transform="translate(552.333625 186.838281) scale(0.1 -0.1)">
     <use xlink:href="#DejaVuSans-Bold-46"/>
     <use xlink:href="#DejaVuSans-Bold-69" transform="translate(68.310547 0)"/>
     <use xlink:href="#DejaVuSans-Bold-6c" transform="translate(102.587891 0)"/>
     <use xlink:href="#DejaVuSans-Bold-74" transform="translate(136.865234 0)"/>
     <use xlink:href="#DejaVuSans-Bold-72" transform="translate(184.667969 0)"/>
     <use xlink:href="#DejaVuSans-Bold-6f" transform="translate(233.984375 0)"/>
    </g>
    <!-- Passa-Banda -->
    <g transform="translate(531.46175 198.036094) scale(0.1 -0.1)">
     <defs>
      <path id="DejaVuSans-Bold-50" d="M 588 4666 
L 2584 4666 
Q 3475 4666 3951 4270 
Q 4428 3875 4428 3144 
Q 4428 2409 3951 2014 
Q 3475 1619 2584 1619 
L 1791 1619 
L 1791 0 
L 588 0 
L 588 4666 
z
M 1791 3794 
L 1791 2491 
L 2456 2491 
Q 2806 2491 2997 2661 
Q 3188 2831 3188 3144 
Q 3188 3456 2997 3625 
Q 2806 3794 2456 3794 
L 1791 3794 
z
" transform="scale(0.015625)"/>
      <path id="DejaVuSans-Bold-2d" d="M 347 2297 
L 2309 2297 
L 2309 1388 
L 347 1388 
L 347 2297 
z
" transform="scale(0.015625)"/>
      <path id="DejaVuSans-Bold-42" d="M 2456 2859 
Q 2741 2859 2887 2984 
Q 3034 3109 3034 3353 
Q 3034 3594 2887 3720 
Q 2741 3847 2456 3847 
L 1791 3847 
L 1791 2859 
L 2456 2859 
z
M 2497 819 
Q 2859 819 3042 972 
Q 3225 1125 3225 1434 
Q 3225 1738 3044 1889 
Q 2863 2041 2497 2041 
L 1791 2041 
L 1791 819 
L 2497 819 
z
M 3616 2497 
Q 4003 2384 4215 2081 
Q 4428 1778 4428 1338 
Q 4428 663 3972 331 
Q 3516 0 2584 0 
L 588 0 
L 588 4666 
L 2394 4666 
Q 3366 4666 3802 4372 
Q 4238 4078 4238 3431 
Q 4238 3091 4078 2852 
Q 3919 2613 3616 2497 
z
" transform="scale(0.015625)"/>
     </defs>
     <use xlink:href="#DejaVuSans-Bold-50"/>
     <use xlink:href="#DejaVuSans-Bold-61" transform="translate(70.666016 0)"/>
     <use xlink:href="#DejaVuSans-Bold-73" transform="translate(138.146484 0)"/>
     <use xlink:href="#DejaVuSans-Bold-73" transform="translate(197.667969 0)"/>
     <use xlink:href="#DejaVuSans-Bold-61" transform="translate(257.189453 0)"/>
     <use xlink:href="#DejaVuSans-Bold-2d" transform="translate(324.669922 0)"/>
     <use xlink:href="#DejaVuSans-Bold-42" transform="translate(366.173828 0)"/>
     <use xlink:href="#DejaVuSans-Bold-61" transform="translate(442.394531 0)"/>
     <use xlink:href="#DejaVuSans-Bold-6e" transform="translate(509.875 0)"/>
     <use xlink:href="#DejaVuSans-Bold-64" transform="translate(581.066406 0)"/>
     <use xlink:href="#DejaVuSans-Bold-61" transform="translate(652.648438 0)"/>
    </g>
   </g>
   <g id="text_6">
    <!-- Amp -->
    <g transform="translate(675.373406 186.838281) scale(0.1 -0.1)">
     <use xlink:href="#DejaVuSans-Bold-41"/>
     <use xlink:href="#DejaVuSans-Bold-6d" transform="translate(77.392578 0)"/>
     <use xlink:href="#DejaVuSans-Bold-70" transform="translate(181.591797 0)"/>
    </g>
    <!-- Potenza -->
    <g transform="translate(665.307 198.036094) scale(0.1 -0.1)">
     <use xlink:href="#DejaVuSans-Bold-50"/>
     <use xlink:href="#DejaVuSans-Bold-6f" transform="translate(73.291016 0)"/>
     <use xlink:href="#DejaVuSans-Bold-74" transform="translate(141.992188 0)"/>
     <use xlink:href="#DejaVuSans-Bold-65" transform="translate(189.794922 0)"/>
     <use xlink:href="#DejaVuSans-Bold-6e" transform="translate(257.617188 0)"/>
     <use xlink:href="#DejaVuSans-Bold-7a" transform="translate(328.808594 0)"/>
     <use xlink:href="#DejaVuSans-Bold-61" transform="translate(387.011719 0)"/>
    </g>
   </g>
   <g id="text_7">
    <!-- Antenna -->
    <g transform="translate(784.892875 192.437187) scale(0.1 -0.1)">
     <use xlink:href="#DejaVuSans-Bold-41"/>
     <use xlink:href="#DejaVuSans-Bold-6e" transform="translate(77.392578 0)"/>
     <use xlink:href="#DejaVuSans-Bold-74" transform="translate(148.583984 0)"/>
     <use xlink:href="#DejaVuSans-Bold-65" transform="translate(196.386719 0)"/>
     <use xlink:href="#DejaVuSans-Bold-6e" transform="translate(264.208984 0)"/>
     <use xlink:href="#DejaVuSans-Bold-6e" transform="translate(335.400391 0)"/>
     <use xlink:href="#DejaVuSans-Bold-61" transform="translate(406.591797 0)"/>
    </g>
   </g>
   <g id="text_8">
    <!-- Audio -->
    <g transform="translate(189.618969 80.550281) scale(0.1 -0.1)">
     <use xlink:href="#DejaVuSans-Bold-41"/>
     <use xlink:href="#DejaVuSans-Bold-75" transform="translate(77.392578 0)"/>
     <use xlink:href="#DejaVuSans-Bold-64" transform="translate(148.583984 0)"/>
     <use xlink:href="#DejaVuSans-Bold-69" transform="translate(220.166016 0)"/>
     <use xlink:href="#DejaVuSans-Bold-6f" transform="translate(254.443359 0)"/>
    </g>
    <!-- 50-15kHz -->
    <g transform="translate(179.365844 91.748094) scale(0.1 -0.1)">
     <defs>
      <path id="DejaVuSans-Bold-35" d="M 678 4666 
L 3669 4666 
L 3669 3781 
L 1638 3781 
L 1638 3059 
Q 1775 3097 1914 3117 
Q 2053 3138 2203 3138 
Q 3056 3138 3531 2711 
Q 4006 2284 4006 1522 
Q 4006 766 3489 337 
Q 2972 -91 2053 -91 
Q 1656 -91 1267 -14 
Q 878 63 494 219 
L 494 1166 
Q 875 947 1217 837 
Q 1559 728 1863 728 
Q 2300 728 2551 942 
Q 2803 1156 2803 1522 
Q 2803 1891 2551 2103 
Q 2300 2316 1863 2316 
Q 1603 2316 1309 2248 
Q 1016 2181 678 2041 
L 678 4666 
z
" transform="scale(0.015625)"/>
      <path id="DejaVuSans-Bold-30" d="M 2944 2338 
Q 2944 3213 2780 3570 
Q 2616 3928 2228 3928 
Q 1841 3928 1675 3570 
Q 1509 3213 1509 2338 
Q 1509 1453 1675 1090 
Q 1841 728 2228 728 
Q 2613 728 2778 1090 
Q 2944 1453 2944 2338 
z
M 4147 2328 
Q 4147 1169 3647 539 
Q 3147 -91 2228 -91 
Q 1306 -91 806 539 
Q 306 1169 306 2328 
Q 306 3491 806 4120 
Q 1306 4750 2228 4750 
Q 3147 4750 3647 4120 
Q 4147 3491 4147 2328 
z
" transform="scale(0.015625)"/>
      <path id="DejaVuSans-Bold-31" d="M 750 831 
L 1813 831 
L 1813 3847 
L 722 3622 
L 722 4441 
L 1806 4666 
L 2950 4666 
L 2950 831 
L 4013 831 
L 4013 0 
L 750 0 
L 750 831 
z
" transform="scale(0.015625)"/>
      <path id="DejaVuSans-Bold-6b" d="M 538 4863 
L 1656 4863 
L 1656 2216 
L 2944 3500 
L 4244 3500 
L 2534 1894 
L 4378 0 
L 3022 0 
L 1656 1459 
L 1656 0 
L 538 0 
L 538 4863 
z
" transform="scale(0.015625)"/>
      <path id="DejaVuSans-Bold-48" d="M 588 4666 
L 1791 4666 
L 1791 2888 
L 3566 2888 
L 3566 4666 
L 4769 4666 
L 4769 0 
L 3566 0 
L 3566 1978 
L 1791 1978 
L 1791 0 
L 588 0 
L 588 4666 
z
" transform="scale(0.015625)"/>
     </defs>
     <use xlink:href="#DejaVuSans-Bold-35"/>
     <use xlink:href="#DejaVuSans-Bold-30" transform="translate(69.580078 0)"/>
     <use xlink:href="#DejaVuSans-Bold-2d" transform="translate(139.160156 0)"/>
     <use xlink:href="#DejaVuSans-Bold-31" transform="translate(180.664062 0)"/>
     <use xlink:href="#DejaVuSans-Bold-35" transform="translate(250.244141 0)"/>
     <use xlink:href="#DejaVuSans-Bold-6b" transform="translate(319.824219 0)"/>
     <use xlink:href="#DejaVuSans-Bold-48" transform="translate(386.328125 0)"/>
     <use xlink:href="#DejaVuSans-Bold-7a" transform="translate(470.019531 0)"/>
    </g>
   </g>
   <g id="text_9">
    <!-- Pre-Enfasi -->
    <g transform="translate(176.965063 313.909187) scale(0.1 -0.1)">
     <defs>
      <path id="DejaVuSans-Bold-45" d="M 588 4666 
L 3834 4666 
L 3834 3756 
L 1791 3756 
L 1791 2888 
L 3713 2888 
L 3713 1978 
L 1791 1978 
L 1791 909 
L 3903 909 
L 3903 0 
L 588 0 
L 588 4666 
z
" transform="scale(0.015625)"/>
      <path id="DejaVuSans-Bold-66" d="M 2841 4863 
L 2841 4128 
L 2222 4128 
Q 1984 4128 1890 4042 
Q 1797 3956 1797 3744 
L 1797 3500 
L 2753 3500 
L 2753 2700 
L 1797 2700 
L 1797 0 
L 678 0 
L 678 2700 
L 122 2700 
L 122 3500 
L 678 3500 
L 678 3744 
Q 678 4316 997 4589 
Q 1316 4863 1984 4863 
L 2841 4863 
z
" transform="scale(0.015625)"/>
     </defs>
     <use xlink:href="#DejaVuSans-Bold-50"/>
     <use xlink:href="#DejaVuSans-Bold-72" transform="translate(73.291016 0)"/>
     <use xlink:href="#DejaVuSans-Bold-65" transform="translate(122.607422 0)"/>
     <use xlink:href="#DejaVuSans-Bold-2d" transform="translate(190.429688 0)"/>
     <use xlink:href="#DejaVuSans-Bold-45" transform="translate(231.933594 0)"/>
     <use xlink:href="#DejaVuSans-Bold-6e" transform="translate(300.244141 0)"/>
     <use xlink:href="#DejaVuSans-Bold-66" transform="translate(371.435547 0)"/>
     <use xlink:href="#DejaVuSans-Bold-61" transform="translate(414.941406 0)"/>
     <use xlink:href="#DejaVuSans-Bold-73" transform="translate(482.421875 0)"/>
     <use xlink:href="#DejaVuSans-Bold-69" transform="translate(541.943359 0)"/>
    </g>
   </g>
   <g id="text_10">
    <!-- Schema a Blocchi Trasmettitore FM (F3E) -->
    <g transform="translate(553.909219 17.837812) scale(0.14 -0.14)">
     <defs>
      <path id="DejaVuSans-Bold-53" d="M 3834 4519 
L 3834 3531 
Q 3450 3703 3084 3790 
Q 2719 3878 2394 3878 
Q 1963 3878 1756 3759 
Q 1550 3641 1550 3391 
Q 1550 3203 1689 3098 
Q 1828 2994 2194 2919 
L 2706 2816 
Q 3484 2659 3812 2340 
Q 4141 2022 4141 1434 
Q 4141 663 3683 286 
Q 3225 -91 2284 -91 
Q 1841 -91 1394 -6 
Q 947 78 500 244 
L 500 1259 
Q 947 1022 1364 901 
Q 1781 781 2169 781 
Q 2563 781 2772 912 
Q 2981 1044 2981 1288 
Q 2981 1506 2839 1625 
Q 2697 1744 2272 1838 
L 1806 1941 
Q 1106 2091 782 2419 
Q 459 2747 459 3303 
Q 459 4000 909 4375 
Q 1359 4750 2203 4750 
Q 2588 4750 2994 4692 
Q 3400 4634 3834 4519 
z
" transform="scale(0.015625)"/>
      <path id="DejaVuSans-Bold-68" d="M 4056 2131 
L 4056 0 
L 2931 0 
L 2931 347 
L 2931 1625 
Q 2931 2084 2911 2256 
Q 2891 2428 2841 2509 
Q 2775 2619 2662 2680 
Q 2550 2741 2406 2741 
Q 2056 2741 1856 2470 
Q 1656 2200 1656 1722 
L 1656 0 
L 538 0 
L 538 4863 
L 1656 4863 
L 1656 2988 
Q 1909 3294 2193 3439 
Q 2478 3584 2822 3584 
Q 3428 3584 3742 3212 
Q 4056 2841 4056 2131 
z
" transform="scale(0.015625)"/>
      <path id="DejaVuSans-Bold-20" transform="scale(0.015625)"/>
      <path id="DejaVuSans-Bold-54" d="M 31 4666 
L 4331 4666 
L 4331 3756 
L 2784 3756 
L 2784 0 
L 1581 0 
L 1581 3756 
L 31 3756 
L 31 4666 
z
" transform="scale(0.015625)"/>
      <path id="DejaVuSans-Bold-28" d="M 2413 -844 
L 1484 -844 
Q 1006 -72 778 623 
Q 550 1319 550 2003 
Q 550 2688 779 3389 
Q 1009 4091 1484 4856 
L 2413 4856 
Q 2013 4116 1813 3408 
Q 1613 2700 1613 2009 
Q 1613 1319 1811 609 
Q 2009 -100 2413 -844 
z
" transform="scale(0.015625)"/>
      <path id="DejaVuSans-Bold-33" d="M 2981 2516 
Q 3453 2394 3698 2092 
Q 3944 1791 3944 1325 
Q 3944 631 3412 270 
Q 2881 -91 1863 -91 
Q 1503 -91 1142 -33 
Q 781 25 428 141 
L 428 1069 
Q 766 900 1098 814 
Q 1431 728 1753 728 
Q 2231 728 2486 893 
Q 2741 1059 2741 1369 
Q 2741 1688 2480 1852 
Q 2219 2016 1709 2016 
L 1228 2016 
L 1228 2791 
L 1734 2791 
Q 2188 2791 2409 2933 
Q 2631 3075 2631 3366 
Q 2631 3634 2415 3781 
Q 2200 3928 1806 3928 
Q 1516 3928 1219 3862 
Q 922 3797 628 3669 
L 628 4550 
Q 984 4650 1334 4700 
Q 1684 4750 2022 4750 
Q 2931 4750 3382 4451 
Q 3834 4153 3834 3553 
Q 3834 3144 3618 2883 
Q 3403 2622 2981 2516 
z
" transform="scale(0.015625)"/>
      <path id="DejaVuSans-Bold-29" d="M 513 -844 
Q 913 -100 1113 609 
Q 1313 1319 1313 2009 
Q 1313 2700 1113 3408 
Q 913 4116 513 4856 
L 1441 4856 
Q 1916 4091 2145 3389 
Q 2375 2688 2375 2003 
Q 2375 1319 2147 623 
Q 1919 -72 1441 -844 
L 513 -844 
z
" transform="scale(0.015625)"/>
     </defs>
     <use xlink:href="#DejaVuSans-Bold-53"/>
     <use xlink:href="#DejaVuSans-Bold-63" transform="translate(72.021484 0)"/>
     <use xlink:href="#DejaVuSans-Bold-68" transform="translate(131.298828 0)"/>
     <use xlink:href="#DejaVuSans-Bold-65" transform="translate(202.490234 0)"/>
     <use xlink:href="#DejaVuSans-Bold-6d" transform="translate(270.3125 0)"/>
     <use xlink:href="#DejaVuSans-Bold-61" transform="translate(374.511719 0)"/>
     <use xlink:href="#DejaVuSans-Bold-20" transform="translate(441.992188 0)"/>
     <use xlink:href="#DejaVuSans-Bold-61" transform="translate(476.806641 0)"/>
     <use xlink:href="#DejaVuSans-Bold-20" transform="translate(544.287109 0)"/>
     <use xlink:href="#DejaVuSans-Bold-42" transform="translate(579.101562 0)"/>
     <use xlink:href="#DejaVuSans-Bold-6c" transform="translate(655.322266 0)"/>
     <use xlink:href="#DejaVuSans-Bold-6f" transform="translate(689.599609 0)"/>
     <use xlink:href="#DejaVuSans-Bold-63" transform="translate(758.300781 0)"/>
     <use xlink:href="#DejaVuSans-Bold-63" transform="translate(817.578125 0)"/>
     <use xlink:href="#DejaVuSans-Bold-68" transform="translate(876.855469 0)"/>
     <use xlink:href="#DejaVuSans-Bold-69" transform="translate(948.046875 0)"/>
     <use xlink:href="#DejaVuSans-Bold-20" transform="translate(982.324219 0)"/>
     <use xlink:href="#DejaVuSans-Bold-54" transform="translate(1017.138672 0)"/>
     <use xlink:href="#DejaVuSans-Bold-72" transform="translate(1074.351562 0)"/>
     <use xlink:href="#DejaVuSans-Bold-61" transform="translate(1123.667969 0)"/>
     <use xlink:href="#DejaVuSans-Bold-73" transform="translate(1191.148438 0)"/>
     <use xlink:href="#DejaVuSans-Bold-6d" transform="translate(1250.669922 0)"/>
     <use xlink:href="#DejaVuSans-Bold-65" transform="translate(1354.869141 0)"/>
     <use xlink:href="#DejaVuSans-Bold-74" transform="translate(1422.691406 0)"/>
     <use xlink:href="#DejaVuSans-Bold-74" transform="translate(1470.494141 0)"/>
     <use xlink:href="#DejaVuSans-Bold-69" transform="translate(1518.296875 0)"/>
     <use xlink:href="#DejaVuSans-Bold-74" transform="translate(1552.574219 0)"/>
     <use xlink:href="#DejaVuSans-Bold-6f" transform="translate(1600.376953 0)"/>
     <use xlink:href="#DejaVuSans-Bold-72" transform="translate(1669.078125 0)"/>
     <use xlink:href="#DejaVuSans-Bold-65" transform="translate(1718.394531 0)"/>
     <use xlink:href="#DejaVuSans-Bold-20" transform="translate(1786.216797 0)"/>
     <use xlink:href="#DejaVuSans-Bold-46" transform="translate(1821.03125 0)"/>
     <use xlink:href="#DejaVuSans-Bold-4d" transform="translate(1889.341797 0)"/>
     <use xlink:href="#DejaVuSans-Bold-20" transform="translate(1988.853516 0)"/>
     <use xlink:href="#DejaVuSans-Bold-28" transform="translate(2023.667969 0)"/>
     <use xlink:href="#DejaVuSans-Bold-46" transform="translate(2069.371094 0)"/>
     <use xlink:href="#DejaVuSans-Bold-33" transform="translate(2137.681641 0)"/>
     <use xlink:href="#DejaVuSans-Bold-45" transform="translate(2207.261719 0)"/>
     <use xlink:href="#DejaVuSans-Bold-29" transform="translate(2275.572266 0)"/>
    </g>
   </g>
  </g>
 </g>
 <defs>
  <clipPath id="p40f483fea5">
   <rect x="7.2" y="37.837812" width="1418.4" height="379.6"/>
  </clipPath>
 </defs>
</svg>
